<svg xmlns="http://www.w3.org/2000/svg" viewBox="0 0 410 618" width="410" height="618"><defs><pattern id="g" width="6" height="6" patternUnits="userSpaceOnUse"><rect width="6" height="6" fill="#2a2a2a"/><rect width="5" height="5" fill="#fff"/></pattern><mask id="m" maskUnits="userSpaceOnUse" x="0" y="0" width="410" height="618"><rect width="410" height="618" fill="url(#g)"/></mask></defs><g mask="url(#m)"><path fill="#10252b" fill-opacity="0.6" d="M336 54h6v6h-6zM360 54h6v6h-6zM384 54h6v6h-6zM348 66h6v6h-6zM372 66h6v6h-6zM396 66h6v6h-6zM288 78h6v6h-6zM312 78h6v6h-6zM336 78h6v6h-6zM348 78h6v6h-6zM360 78h6v6h-6zM372 78h6v6h-6zM384 78h6v6h-6zM396 78h6v6h-6zM408 78h6v6h-6zM342 84h6v6h-6zM390 84h6v6h-6zM300 90h6v6h-6zM324 90h6v6h-6zM336 90h6v6h-6zM264 102h6v6h-6zM288 102h6v6h-6zM300 102h6v6h-6zM312 102h6v6h-6zM300 114h6v6h-6zM306 120h6v6h-6zM264 126h6v6h-6zM288 126h6v6h-6zM300 126h6v6h-6zM300 138h6v6h-6zM264 150h6v6h-6zM288 150h6v6h-6zM294 156h6v6h-6zM276 162h6v6h-6zM288 162h6v6h-6zM240 174h6v6h-6zM264 174h6v6h-6zM276 174h6v6h-6zM252 186h6v6h-6zM276 186h6v6h-6zM240 198h6v6h-6zM264 198h6v6h-6zM252 210h6v6h-6zM264 210h6v6h-6zM192 222h6v6h-6zM216 222h6v6h-6zM240 222h6v6h-6zM252 222h6v6h-6zM204 234h6v6h-6zM228 234h6v6h-6zM252 234h6v6h-6zM192 246h6v6h-6zM204 246h6v6h-6zM216 246h6v6h-6zM228 246h6v6h-6zM240 246h6v6h-6zM204 258h6v6h-6zM168 270h6v6h-6zM192 270h6v6h-6zM180 282h6v6h-6zM192 282h6v6h-6zM120 294h6v6h-6zM144 294h6v6h-6zM156 294h6v6h-6zM168 294h6v6h-6zM180 294h6v6h-6zM132 306h6v6h-6zM144 306h6v6h-6zM156 306h6v6h-6zM168 306h6v6h-6zM180 306h6v6h-6zM120 318h6v6h-6zM132 318h6v6h-6zM144 318h6v6h-6zM132 330h6v6h-6zM72 342h6v6h-6zM96 342h6v6h-6zM120 342h6v6h-6zM126 348h6v6h-6zM84 354h6v6h-6zM108 354h6v6h-6zM120 354h6v6h-6zM72 366h6v6h-6zM84 366h6v6h-6zM96 366h6v6h-6zM84 378h6v6h-6zM72 390h6v6h-6zM84 390h6v6h-6zM78 396h6v6h-6zM72 402h6v6h-6zM72 414h6v6h-6zM78 420h6v6h-6zM72 438h6v6h-6zM84 438h6v6h-6zM84 450h6v6h-6zM96 450h6v6h-6zM144 450h6v6h-6zM72 462h6v6h-6zM96 462h6v6h-6zM108 462h6v6h-6zM120 462h6v6h-6zM132 462h6v6h-6zM144 462h6v6h-6zM150 468h6v6h-6zM108 474h6v6h-6zM132 474h6v6h-6zM96 486h6v6h-6zM120 486h6v6h-6zM144 486h6v6h-6zM156 486h6v6h-6zM252 486h6v6h-6zM264 486h6v6h-6zM276 486h6v6h-6zM174 492h6v6h-6zM246 492h6v6h-6zM156 498h6v6h-6zM180 498h6v6h-6zM240 498h6v6h-6zM252 498h6v6h-6zM276 498h6v6h-6zM288 498h6v6h-6zM120 510h6v6h-6zM144 510h6v6h-6zM168 510h6v6h-6zM192 510h6v6h-6zM204 510h6v6h-6zM216 510h6v6h-6zM228 510h6v6h-6zM240 510h6v6h-6zM264 510h6v6h-6zM288 510h6v6h-6zM204 522h6v6h-6zM228 522h6v6h-6zM300 522h6v6h-6zM408 522h6v6h-6zM192 534h6v6h-6zM216 534h6v6h-6zM240 534h6v6h-6zM288 534h6v6h-6zM312 534h6v6h-6zM324 534h6v6h-6zM384 534h6v6h-6zM396 534h6v6h-6zM408 534h6v6h-6zM342 540h6v6h-6zM366 540h6v6h-6zM324 546h6v6h-6zM348 546h6v6h-6zM360 546h6v6h-6zM372 546h6v6h-6zM396 546h6v6h-6zM312 558h6v6h-6zM336 558h6v6h-6zM360 558h6v6h-6zM384 558h6v6h-6zM408 558h6v6h-6z"/><path fill="#163234" fill-opacity="0.75" d="M354 84h6v6h-6zM366 84h6v6h-6zM348 90h12v6h-12zM384 90h6v6h-6zM396 90h6v6h-6zM324 102h6v6h-6zM336 102h6v6h-6zM318 108h6v6h-6zM330 108h6v6h-6zM312 114h6v6h-6zM312 138h6v6h-6zM306 144h6v6h-6zM300 150h6v6h-6zM288 174h6v6h-6zM294 180h6v6h-6zM288 186h6v6h-6zM282 192h6v6h-6zM276 198h6v6h-6zM270 204h6v6h-6zM276 210h6v6h-6zM264 222h6v6h-6zM252 246h6v6h-6zM222 252h6v6h-6zM246 252h6v6h-6zM258 252h6v6h-6zM216 258h6v6h-6zM252 258h6v6h-6zM258 264h6v6h-6zM204 270h6v6h-6zM198 276h6v6h-6zM192 294h6v6h-6zM186 300h6v6h-6zM192 306h6v6h-6zM162 312h6v6h-6zM186 312h6v6h-6zM180 318h6v6h-6zM138 336h6v6h-6zM132 342h6v6h-6zM108 366h6v6h-6zM120 366h6v6h-6zM90 384h6v6h-6zM84 426h6v6h-6zM90 432h6v6h-6zM96 438h6v6h-6zM102 444h6v6h-6zM108 450h6v6h-6zM258 468h6v6h-6zM156 474h6v6h-6zM252 474h6v6h-6zM264 474h6v6h-6zM276 474h6v6h-6zM162 480h6v6h-6zM282 480h6v6h-6zM168 486h6v6h-6zM288 486h6v6h-6zM294 492h6v6h-6zM192 498h6v6h-6zM216 498h6v6h-6zM228 498h6v6h-6zM300 498h6v6h-6zM306 504h6v6h-6zM300 510h6v6h-6zM312 522h6v6h-6zM336 534h6v6h-6zM348 534h6v6h-6zM360 534h6v6h-6zM372 534h6v6h-6z"/><path fill="#b9985c" fill-opacity="0.85" d="M324 78h6v6h-6zM198 156h6v6h-6zM90 252h6v6h-6zM90 288h6v6h-6zM108 300h6v6h-6zM138 324h6v6h-6zM60 348h6v6h-6zM54 390h6v6h-6zM246 498h6v6h-6zM78 516h6v6h-6zM162 528h6v6h-6zM240 540h6v6h-6zM162 546h6v6h-6zM402 552h6v6h-6zM360 570h6v6h-6z"/><path fill="#0b1a20" d="M378 96h6v6h-6zM378 102h6v6h-6zM372 108h12v6h-12zM360 114h12v6h-12zM378 114h6v6h-6zM360 120h24v6h-24zM354 126h6v6h-6zM366 126h12v6h-12zM348 132h12v6h-12zM366 132h6v6h-6zM342 138h6v6h-6zM354 138h6v6h-6zM318 144h42v6h-42zM408 144h6v6h-6zM330 150h6v6h-6zM342 150h6v6h-6zM354 150h6v6h-6zM402 150h6v6h-6zM342 156h12v6h-12zM396 156h18v6h-18zM390 162h6v6h-6zM402 162h12v6h-12zM372 168h6v6h-6zM384 168h30v6h-30zM354 174h6v6h-6zM366 174h6v6h-6zM378 174h6v6h-6zM390 174h6v6h-6zM402 174h6v6h-6zM342 180h72v6h-72zM372 186h24v6h-24zM402 186h12v6h-12zM378 192h36v6h-36zM342 198h6v6h-6zM378 198h6v6h-6zM390 198h6v6h-6zM402 198h6v6h-6zM324 204h6v6h-6zM336 204h12v6h-12zM372 204h24v6h-24zM318 210h6v6h-6zM330 210h18v6h-18zM366 210h6v6h-6zM378 210h18v6h-18zM312 216h42v6h-42zM360 216h36v6h-36zM306 222h6v6h-6zM318 222h18v6h-18zM342 222h6v6h-6zM354 222h6v6h-6zM366 222h6v6h-6zM288 228h78v6h-78zM294 234h6v6h-6zM306 234h18v6h-18zM330 234h18v6h-18zM354 234h6v6h-6zM300 240h54v6h-54zM408 240h6v6h-6zM396 252h12v6h-12zM246 264h6v6h-6zM264 264h6v6h-6zM384 264h18v6h-18zM246 270h6v6h-6zM390 270h6v6h-6zM240 276h6v6h-6zM288 276h6v6h-6zM348 276h6v6h-6zM372 276h24v6h-24zM234 282h12v6h-12zM282 282h18v6h-18zM354 282h6v6h-6zM366 282h6v6h-6zM378 282h18v6h-18zM216 288h30v6h-30zM270 288h36v6h-36zM348 288h48v6h-48zM222 294h6v6h-6zM234 294h6v6h-6zM258 294h6v6h-6zM270 294h6v6h-6zM282 294h6v6h-6zM294 294h6v6h-6zM354 294h6v6h-6zM366 294h6v6h-6zM378 294h6v6h-6zM264 300h18v6h-18zM288 300h18v6h-18zM336 300h42v6h-42zM408 300h6v6h-6zM282 306h6v6h-6zM294 306h6v6h-6zM306 306h6v6h-6zM318 306h6v6h-6zM330 306h18v6h-18zM354 306h18v6h-18zM408 306h6v6h-6zM276 312h96v6h-96zM270 318h6v6h-6zM282 318h6v6h-6zM294 318h12v6h-12zM318 318h18v6h-18zM342 318h18v6h-18zM264 324h12v6h-12zM324 324h6v6h-6zM336 324h6v6h-6zM348 324h6v6h-6zM174 330h6v6h-6zM210 330h6v6h-6zM246 330h6v6h-6zM258 330h6v6h-6zM318 330h6v6h-6zM168 336h12v6h-12zM204 336h18v6h-18zM228 336h6v6h-6zM240 336h6v6h-6zM300 336h6v6h-6zM360 336h6v6h-6zM408 336h6v6h-6zM174 342h6v6h-6zM198 342h6v6h-6zM156 348h54v6h-54zM216 348h6v6h-6zM360 348h6v6h-6zM372 348h6v6h-6zM396 348h6v6h-6zM408 348h6v6h-6zM162 354h12v6h-12zM210 354h18v6h-18zM270 354h6v6h-6zM282 354h12v6h-12zM354 354h18v6h-18zM390 354h6v6h-6zM402 354h12v6h-12zM204 360h18v6h-18zM264 360h30v6h-30zM348 360h30v6h-30zM384 360h30v6h-30zM210 366h6v6h-6zM258 366h6v6h-6zM270 366h6v6h-6zM282 366h6v6h-6zM294 366h6v6h-6zM342 366h6v6h-6zM354 366h6v6h-6zM366 366h6v6h-6zM378 366h6v6h-6zM390 366h18v6h-18zM192 372h6v6h-6zM204 372h18v6h-18zM252 372h30v6h-30zM324 372h42v6h-42zM378 372h36v6h-36zM138 378h6v6h-6zM174 378h6v6h-6zM210 378h18v6h-18zM234 378h18v6h-18zM258 378h18v6h-18zM306 378h6v6h-6zM318 378h6v6h-6zM330 378h18v6h-18zM390 378h24v6h-24zM132 384h12v6h-12zM210 384h18v6h-18zM234 384h36v6h-36zM312 384h36v6h-36zM396 384h18v6h-18zM108 390h12v6h-12zM126 390h6v6h-6zM138 390h6v6h-6zM246 390h6v6h-6zM318 390h6v6h-6zM402 390h6v6h-6zM126 396h12v6h-12zM156 396h6v6h-6zM204 396h12v6h-12zM312 396h6v6h-6zM396 396h18v6h-18zM150 402h6v6h-6zM198 402h6v6h-6zM210 402h6v6h-6zM306 402h6v6h-6zM354 402h6v6h-6zM390 402h6v6h-6zM402 402h12v6h-12zM144 408h12v6h-12zM192 408h24v6h-24zM252 408h6v6h-6zM300 408h12v6h-12zM348 408h18v6h-18zM384 408h30v6h-30zM138 414h6v6h-6zM150 414h6v6h-6zM186 414h6v6h-6zM198 414h6v6h-6zM210 414h6v6h-6zM258 414h6v6h-6zM306 414h6v6h-6zM354 414h6v6h-6zM378 414h6v6h-6zM390 414h6v6h-6zM402 414h6v6h-6zM132 420h18v6h-18zM180 420h30v6h-30zM252 420h12v6h-12zM300 420h12v6h-12zM336 420h30v6h-30zM372 420h42v6h-42zM126 426h6v6h-6zM138 426h12v6h-12zM174 426h6v6h-6zM186 426h18v6h-18zM246 426h6v6h-6zM258 426h6v6h-6zM330 426h18v6h-18zM354 426h18v6h-18zM378 426h18v6h-18zM402 426h6v6h-6zM96 432h6v6h-6zM108 432h42v6h-42zM156 432h48v6h-48zM240 432h30v6h-30zM276 432h6v6h-6zM306 432h96v6h-96zM408 432h6v6h-6zM102 438h6v6h-6zM114 438h6v6h-6zM126 438h6v6h-6zM138 438h6v6h-6zM162 438h6v6h-6zM174 438h6v6h-6zM186 438h6v6h-6zM234 438h6v6h-6zM246 438h6v6h-6zM258 438h6v6h-6zM270 438h6v6h-6zM282 438h6v6h-6zM306 438h6v6h-6zM318 438h6v6h-6zM330 438h6v6h-6zM342 438h6v6h-6zM366 438h6v6h-6zM378 438h6v6h-6zM402 438h6v6h-6zM108 444h42v6h-42zM228 444h60v6h-60zM318 444h30v6h-30zM396 444h6v6h-6zM408 444h6v6h-6zM126 450h6v6h-6zM222 450h6v6h-6zM234 450h18v6h-18zM258 450h18v6h-18zM282 450h12v6h-12zM390 450h6v6h-6zM402 450h12v6h-12zM204 456h6v6h-6zM216 456h78v6h-78zM384 456h30v6h-30zM210 462h6v6h-6zM222 462h6v6h-6zM234 462h6v6h-6zM246 462h6v6h-6zM258 462h6v6h-6zM270 462h6v6h-6zM282 462h6v6h-6zM378 462h6v6h-6zM390 462h6v6h-6zM402 462h6v6h-6zM180 468h6v6h-6zM192 468h66v6h-66zM270 468h24v6h-24zM372 468h42v6h-42zM174 474h6v6h-6zM186 474h18v6h-18zM210 474h18v6h-18zM234 474h18v6h-18zM282 474h6v6h-6zM366 474h6v6h-6zM378 474h18v6h-18zM402 474h12v6h-12zM174 480h78v6h-78zM348 480h6v6h-6zM360 480h54v6h-54zM186 486h6v6h-6zM198 486h6v6h-6zM210 486h6v6h-6zM222 486h6v6h-6zM234 486h6v6h-6zM354 486h6v6h-6zM366 486h6v6h-6zM378 486h6v6h-6zM390 486h6v6h-6zM402 486h6v6h-6zM186 492h60v6h-60zM324 492h6v6h-6zM336 492h6v6h-6zM348 492h66v6h-66zM210 498h6v6h-6zM318 498h6v6h-6zM330 498h18v6h-18zM354 498h18v6h-18zM378 498h18v6h-18zM402 498h12v6h-12zM312 504h102v6h-102zM318 510h6v6h-6zM330 510h6v6h-6zM342 510h6v6h-6zM354 510h6v6h-6zM366 510h6v6h-6zM378 510h6v6h-6zM390 510h6v6h-6zM402 510h6v6h-6zM318 516h90v6h-90zM318 522h6v6h-6zM330 522h18v6h-18zM354 522h18v6h-18zM378 522h18v6h-18zM324 528h24v6h-24zM354 528h42v6h-42z"/><path fill="#10252b" d="M372 96h6v6h-6zM372 102h6v6h-6zM360 108h12v6h-12zM354 114h6v6h-6zM372 114h6v6h-6zM348 120h12v6h-12zM384 120h6v6h-6zM408 120h6v6h-6zM348 126h6v6h-6zM360 126h6v6h-6zM378 126h6v6h-6zM336 132h12v6h-12zM360 132h6v6h-6zM372 132h6v6h-6zM396 132h6v6h-6zM408 132h6v6h-6zM318 138h6v6h-6zM330 138h12v6h-12zM348 138h6v6h-6zM360 138h6v6h-6zM402 138h12v6h-12zM360 144h6v6h-6zM384 144h24v6h-24zM336 150h6v6h-6zM348 150h6v6h-6zM390 150h12v6h-12zM408 150h6v6h-6zM324 156h6v6h-6zM336 156h6v6h-6zM372 156h24v6h-24zM366 162h6v6h-6zM378 162h12v6h-12zM396 162h6v6h-6zM324 168h6v6h-6zM336 168h6v6h-6zM348 168h24v6h-24zM378 168h6v6h-6zM330 174h24v6h-24zM360 174h6v6h-6zM372 174h6v6h-6zM384 174h6v6h-6zM396 174h6v6h-6zM408 174h6v6h-6zM300 186h6v6h-6zM396 186h6v6h-6zM336 192h6v6h-6zM372 192h6v6h-6zM318 198h24v6h-24zM372 198h6v6h-6zM384 198h6v6h-6zM396 198h6v6h-6zM408 198h6v6h-6zM312 204h12v6h-12zM330 204h6v6h-6zM348 204h6v6h-6zM360 204h12v6h-12zM396 204h18v6h-18zM306 210h12v6h-12zM324 210h6v6h-6zM348 210h18v6h-18zM372 210h6v6h-6zM300 216h12v6h-12zM354 216h6v6h-6zM396 216h6v6h-6zM282 222h6v6h-6zM294 222h12v6h-12zM312 222h6v6h-6zM336 222h6v6h-6zM348 222h6v6h-6zM360 222h6v6h-6zM384 222h12v6h-12zM402 222h6v6h-6zM402 228h12v6h-12zM300 234h6v6h-6zM324 234h6v6h-6zM348 234h6v6h-6zM408 234h6v6h-6zM402 240h6v6h-6zM402 246h12v6h-12zM312 252h6v6h-6zM306 258h6v6h-6zM390 258h12v6h-12zM240 264h6v6h-6zM288 264h6v6h-6zM300 264h6v6h-6zM240 270h6v6h-6zM282 270h18v6h-18zM366 270h6v6h-6zM378 270h12v6h-12zM228 276h12v6h-12zM276 276h12v6h-12zM354 276h18v6h-18zM222 282h12v6h-12zM270 282h12v6h-12zM342 282h12v6h-12zM360 282h6v6h-6zM372 282h6v6h-6zM264 288h6v6h-6zM336 288h12v6h-12zM396 288h6v6h-6zM408 288h6v6h-6zM228 294h6v6h-6zM240 294h6v6h-6zM252 294h6v6h-6zM264 294h6v6h-6zM276 294h6v6h-6zM288 294h6v6h-6zM300 294h12v6h-12zM330 294h24v6h-24zM360 294h6v6h-6zM372 294h6v6h-6zM384 294h30v6h-30zM252 300h12v6h-12zM282 300h6v6h-6zM306 300h12v6h-12zM324 300h12v6h-12zM384 300h6v6h-6zM396 300h12v6h-12zM258 306h24v6h-24zM288 306h6v6h-6zM300 306h6v6h-6zM312 306h6v6h-6zM324 306h6v6h-6zM348 306h6v6h-6zM372 306h6v6h-6zM402 306h6v6h-6zM264 312h12v6h-12zM372 312h6v6h-6zM408 312h6v6h-6zM258 318h6v6h-6zM276 318h6v6h-6zM306 318h12v6h-12zM336 318h6v6h-6zM360 318h12v6h-12zM204 324h6v6h-6zM240 324h6v6h-6zM252 324h12v6h-12zM306 324h18v6h-18zM330 324h6v6h-6zM342 324h6v6h-6zM354 324h12v6h-12zM396 324h6v6h-6zM408 324h6v6h-6zM204 330h6v6h-6zM234 330h12v6h-12zM252 330h6v6h-6zM306 330h12v6h-12zM348 330h12v6h-12zM390 330h6v6h-6zM402 330h12v6h-12zM192 336h12v6h-12zM222 336h6v6h-6zM234 336h6v6h-6zM366 336h12v6h-12zM384 336h24v6h-24zM162 342h12v6h-12zM186 342h12v6h-12zM204 342h30v6h-30zM270 342h6v6h-6zM294 342h6v6h-6zM354 342h30v6h-30zM390 342h24v6h-24zM150 348h6v6h-6zM210 348h6v6h-6zM222 348h6v6h-6zM264 348h36v6h-36zM348 348h12v6h-12zM366 348h6v6h-6zM378 348h18v6h-18zM402 348h6v6h-6zM174 354h6v6h-6zM186 354h24v6h-24zM264 354h6v6h-6zM276 354h6v6h-6zM342 354h12v6h-12zM372 354h18v6h-18zM396 354h6v6h-6zM192 360h12v6h-12zM258 360h6v6h-6zM336 360h12v6h-12zM378 360h6v6h-6zM186 366h6v6h-6zM198 366h12v6h-12zM216 366h6v6h-6zM252 366h6v6h-6zM264 366h6v6h-6zM276 366h6v6h-6zM288 366h6v6h-6zM330 366h12v6h-12zM348 366h6v6h-6zM360 366h6v6h-6zM372 366h6v6h-6zM384 366h6v6h-6zM408 366h6v6h-6zM180 372h12v6h-12zM198 372h6v6h-6zM228 372h6v6h-6zM240 372h12v6h-12zM300 372h6v6h-6zM312 372h12v6h-12zM162 378h12v6h-12zM204 378h6v6h-6zM228 378h6v6h-6zM252 378h6v6h-6zM312 378h6v6h-6zM324 378h6v6h-6zM348 378h6v6h-6zM108 384h6v6h-6zM126 384h6v6h-6zM144 384h24v6h-24zM204 384h6v6h-6zM300 384h12v6h-12zM102 390h6v6h-6zM120 390h6v6h-6zM132 390h6v6h-6zM150 390h12v6h-12zM204 390h6v6h-6zM240 390h6v6h-6zM252 390h12v6h-12zM306 390h12v6h-12zM396 390h6v6h-6zM408 390h6v6h-6zM108 396h6v6h-6zM120 396h6v6h-6zM138 396h18v6h-18zM240 396h6v6h-6zM300 396h12v6h-12zM390 396h6v6h-6zM126 402h6v6h-6zM138 402h12v6h-12zM156 402h6v6h-6zM186 402h12v6h-12zM204 402h6v6h-6zM246 402h6v6h-6zM294 402h12v6h-12zM396 402h6v6h-6zM132 408h12v6h-12zM240 408h12v6h-12zM288 408h12v6h-12zM366 408h18v6h-18zM126 414h12v6h-12zM144 414h6v6h-6zM192 414h6v6h-6zM204 414h6v6h-6zM246 414h12v6h-12zM282 414h6v6h-6zM294 414h12v6h-12zM342 414h12v6h-12zM360 414h18v6h-18zM384 414h6v6h-6zM396 414h6v6h-6zM408 414h6v6h-6zM120 420h12v6h-12zM240 420h12v6h-12zM264 420h6v6h-6zM276 420h24v6h-24zM324 420h12v6h-12zM366 420h6v6h-6zM102 426h24v6h-24zM132 426h6v6h-6zM168 426h6v6h-6zM180 426h6v6h-6zM234 426h12v6h-12zM252 426h6v6h-6zM264 426h30v6h-30zM318 426h12v6h-12zM348 426h6v6h-6zM372 426h6v6h-6zM396 426h6v6h-6zM408 426h6v6h-6zM102 432h6v6h-6zM228 432h12v6h-12zM270 432h6v6h-6zM282 432h6v6h-6zM402 432h6v6h-6zM108 438h6v6h-6zM120 438h6v6h-6zM132 438h6v6h-6zM144 438h6v6h-6zM168 438h6v6h-6zM180 438h6v6h-6zM222 438h12v6h-12zM240 438h6v6h-6zM252 438h6v6h-6zM264 438h6v6h-6zM276 438h6v6h-6zM312 438h6v6h-6zM324 438h6v6h-6zM336 438h6v6h-6zM348 438h18v6h-18zM372 438h6v6h-6zM384 438h18v6h-18zM408 438h6v6h-6zM216 444h12v6h-12zM348 444h6v6h-6zM360 444h6v6h-6zM372 444h24v6h-24zM402 444h6v6h-6zM120 450h6v6h-6zM132 450h6v6h-6zM198 450h6v6h-6zM210 450h12v6h-12zM228 450h6v6h-6zM252 450h6v6h-6zM276 450h6v6h-6zM366 450h6v6h-6zM378 450h12v6h-12zM396 450h6v6h-6zM192 456h12v6h-12zM210 456h6v6h-6zM360 456h24v6h-24zM156 462h6v6h-6zM186 462h24v6h-24zM216 462h6v6h-6zM228 462h6v6h-6zM240 462h6v6h-6zM252 462h6v6h-6zM264 462h6v6h-6zM276 462h6v6h-6zM288 462h6v6h-6zM354 462h6v6h-6zM366 462h12v6h-12zM384 462h6v6h-6zM396 462h6v6h-6zM408 462h6v6h-6zM162 468h18v6h-18zM186 468h6v6h-6zM348 468h24v6h-24zM168 474h6v6h-6zM180 474h6v6h-6zM204 474h6v6h-6zM228 474h6v6h-6zM342 474h6v6h-6zM354 474h12v6h-12zM372 474h6v6h-6zM396 474h6v6h-6zM288 480h6v6h-6zM312 480h6v6h-6zM324 480h24v6h-24zM354 480h6v6h-6zM180 486h6v6h-6zM192 486h6v6h-6zM204 486h6v6h-6zM216 486h6v6h-6zM228 486h6v6h-6zM240 486h6v6h-6zM294 486h6v6h-6zM306 486h6v6h-6zM318 486h6v6h-6zM330 486h24v6h-24zM360 486h6v6h-6zM372 486h6v6h-6zM384 486h6v6h-6zM396 486h6v6h-6zM408 486h6v6h-6zM300 492h24v6h-24zM330 492h6v6h-6zM342 492h6v6h-6zM204 498h6v6h-6zM306 498h12v6h-12zM324 498h6v6h-6zM348 498h6v6h-6zM372 498h6v6h-6zM396 498h6v6h-6zM312 510h6v6h-6zM324 510h6v6h-6zM336 510h6v6h-6zM348 510h6v6h-6zM360 510h6v6h-6zM372 510h6v6h-6zM384 510h6v6h-6zM396 510h6v6h-6zM408 510h6v6h-6zM324 522h6v6h-6zM348 522h6v6h-6zM372 522h6v6h-6zM396 522h6v6h-6z"/><path fill="#163234" d="M372 90h6v6h-6zM384 96h18v6h-18zM408 96h6v6h-6zM354 102h6v6h-6zM366 102h6v6h-6zM402 102h6v6h-6zM354 108h6v6h-6zM384 108h6v6h-6zM408 108h6v6h-6zM384 114h12v6h-12zM408 114h6v6h-6zM342 120h6v6h-6zM342 126h6v6h-6zM402 126h12v6h-12zM312 132h6v6h-6zM324 132h12v6h-12zM378 132h12v6h-12zM402 132h6v6h-6zM324 138h6v6h-6zM366 138h6v6h-6zM378 138h6v6h-6zM390 138h12v6h-12zM366 144h18v6h-18zM324 150h6v6h-6zM360 150h30v6h-30zM330 156h6v6h-6zM354 156h18v6h-18zM324 162h42v6h-42zM372 162h6v6h-6zM330 168h6v6h-6zM342 168h6v6h-6zM300 180h12v6h-12zM306 186h6v6h-6zM336 186h6v6h-6zM366 186h6v6h-6zM318 192h18v6h-18zM342 192h12v6h-12zM366 192h6v6h-6zM348 198h12v6h-12zM366 198h6v6h-6zM354 204h6v6h-6zM396 210h18v6h-18zM276 216h6v6h-6zM288 216h12v6h-12zM402 216h12v6h-12zM288 222h6v6h-6zM396 222h6v6h-6zM408 222h6v6h-6zM282 228h6v6h-6zM288 234h6v6h-6zM402 234h6v6h-6zM396 240h6v6h-6zM306 246h18v6h-18zM342 246h6v6h-6zM390 246h12v6h-12zM300 252h12v6h-12zM384 252h12v6h-12zM264 258h12v6h-12zM282 258h6v6h-6zM294 258h12v6h-12zM342 258h6v6h-6zM378 258h12v6h-12zM252 264h6v6h-6zM282 264h6v6h-6zM294 264h6v6h-6zM342 264h6v6h-6zM360 264h24v6h-24zM234 270h6v6h-6zM342 270h24v6h-24zM372 270h6v6h-6zM336 276h12v6h-12zM210 282h12v6h-12zM246 288h18v6h-18zM324 288h12v6h-12zM402 288h6v6h-6zM246 294h6v6h-6zM318 294h12v6h-12zM228 300h6v6h-6zM318 300h6v6h-6zM378 300h6v6h-6zM390 300h6v6h-6zM252 306h6v6h-6zM378 306h6v6h-6zM390 306h12v6h-12zM252 312h12v6h-12zM378 312h12v6h-12zM396 312h12v6h-12zM192 318h12v6h-12zM246 318h12v6h-12zM264 318h6v6h-6zM372 318h12v6h-12zM390 318h24v6h-24zM174 324h6v6h-6zM210 324h6v6h-6zM228 324h12v6h-12zM246 324h6v6h-6zM366 324h30v6h-30zM402 324h6v6h-6zM168 330h6v6h-6zM198 330h6v6h-6zM216 330h18v6h-18zM300 330h6v6h-6zM360 330h12v6h-12zM378 330h12v6h-12zM396 330h6v6h-6zM162 336h6v6h-6zM264 336h6v6h-6zM294 336h6v6h-6zM348 336h12v6h-12zM378 336h6v6h-6zM150 342h12v6h-12zM180 342h6v6h-6zM282 342h6v6h-6zM342 342h12v6h-12zM384 342h6v6h-6zM336 348h12v6h-12zM156 354h6v6h-6zM180 354h6v6h-6zM258 354h6v6h-6zM330 354h12v6h-12zM162 360h30v6h-30zM252 360h6v6h-6zM312 360h6v6h-6zM324 360h12v6h-12zM174 366h12v6h-12zM192 366h6v6h-6zM246 366h6v6h-6zM306 366h24v6h-24zM114 372h6v6h-6zM138 372h12v6h-12zM168 372h12v6h-12zM222 372h6v6h-6zM234 372h6v6h-6zM288 372h12v6h-12zM306 372h6v6h-6zM108 378h6v6h-6zM132 378h6v6h-6zM144 378h12v6h-12zM276 378h6v6h-6zM294 378h12v6h-12zM120 384h6v6h-6zM228 384h6v6h-6zM270 384h12v6h-12zM294 384h6v6h-6zM390 384h6v6h-6zM144 390h6v6h-6zM198 390h6v6h-6zM210 390h6v6h-6zM264 390h12v6h-12zM294 390h12v6h-12zM390 390h6v6h-6zM114 396h6v6h-6zM180 396h24v6h-24zM216 396h6v6h-6zM252 396h18v6h-18zM288 396h12v6h-12zM348 396h18v6h-18zM384 396h6v6h-6zM120 402h6v6h-6zM132 402h6v6h-6zM240 402h6v6h-6zM252 402h6v6h-6zM282 402h12v6h-12zM342 402h12v6h-12zM360 402h12v6h-12zM378 402h12v6h-12zM120 408h12v6h-12zM186 408h6v6h-6zM216 408h6v6h-6zM258 408h12v6h-12zM276 408h12v6h-12zM336 408h12v6h-12zM114 414h12v6h-12zM180 414h6v6h-6zM234 414h12v6h-12zM264 414h18v6h-18zM288 414h6v6h-6zM330 414h12v6h-12zM84 420h6v6h-6zM108 420h12v6h-12zM168 420h12v6h-12zM210 420h12v6h-12zM228 420h12v6h-12zM270 420h6v6h-6zM90 426h12v6h-12zM150 426h18v6h-18zM204 426h30v6h-30zM306 426h12v6h-12zM204 432h24v6h-24zM198 438h6v6h-6zM210 438h12v6h-12zM168 444h48v6h-48zM312 444h6v6h-6zM354 444h6v6h-6zM366 444h6v6h-6zM174 450h6v6h-6zM186 450h12v6h-12zM204 450h6v6h-6zM318 450h6v6h-6zM330 450h36v6h-36zM372 450h6v6h-6zM156 456h36v6h-36zM324 456h6v6h-6zM336 456h24v6h-24zM162 462h24v6h-24zM342 462h12v6h-12zM360 462h6v6h-6zM312 468h6v6h-6zM324 468h24v6h-24zM288 474h12v6h-12zM306 474h36v6h-36zM348 474h6v6h-6zM294 480h18v6h-18zM318 480h6v6h-6zM300 486h6v6h-6zM312 486h6v6h-6zM324 486h6v6h-6z"/><path fill="#1f3f3c" d="M366 90h6v6h-6zM366 96h6v6h-6zM402 96h6v6h-6zM360 102h6v6h-6zM384 102h12v6h-12zM408 102h6v6h-6zM348 108h6v6h-6zM390 108h18v6h-18zM342 114h12v6h-12zM402 114h6v6h-6zM336 120h6v6h-6zM390 120h18v6h-18zM330 126h12v6h-12zM384 126h18v6h-18zM318 132h6v6h-6zM390 132h6v6h-6zM372 138h6v6h-6zM384 138h6v6h-6zM318 150h6v6h-6zM318 162h6v6h-6zM318 168h6v6h-6zM306 174h18v6h-18zM330 180h12v6h-12zM312 186h12v6h-12zM330 186h6v6h-6zM342 186h6v6h-6zM312 192h6v6h-6zM354 192h12v6h-12zM306 198h12v6h-12zM360 198h6v6h-6zM300 204h12v6h-12zM294 210h12v6h-12zM282 216h6v6h-6zM276 222h6v6h-6zM276 228h6v6h-6zM396 228h6v6h-6zM282 234h6v6h-6zM396 234h6v6h-6zM288 240h12v6h-12zM384 240h12v6h-12zM300 246h6v6h-6zM264 252h18v6h-18zM342 252h6v6h-6zM372 252h12v6h-12zM240 258h6v6h-6zM276 258h6v6h-6zM288 258h6v6h-6zM366 258h12v6h-12zM234 264h6v6h-6zM336 264h6v6h-6zM348 264h12v6h-12zM276 270h6v6h-6zM336 270h6v6h-6zM216 276h12v6h-12zM270 276h6v6h-6zM294 276h6v6h-6zM324 276h12v6h-12zM396 276h18v6h-18zM246 282h6v6h-6zM258 282h12v6h-12zM300 282h6v6h-6zM318 282h6v6h-6zM330 282h12v6h-12zM396 282h18v6h-18zM210 288h6v6h-6zM306 288h18v6h-18zM216 294h6v6h-6zM312 294h6v6h-6zM222 300h6v6h-6zM234 300h18v6h-18zM234 306h6v6h-6zM246 306h6v6h-6zM384 306h6v6h-6zM192 312h6v6h-6zM240 312h12v6h-12zM390 312h6v6h-6zM174 318h6v6h-6zM204 318h12v6h-12zM234 318h12v6h-12zM384 318h6v6h-6zM168 324h6v6h-6zM216 324h12v6h-12zM300 324h6v6h-6zM294 330h6v6h-6zM342 330h6v6h-6zM372 330h6v6h-6zM144 336h6v6h-6zM156 336h6v6h-6zM186 336h6v6h-6zM270 336h6v6h-6zM288 336h6v6h-6zM336 336h12v6h-12zM258 342h12v6h-12zM276 342h6v6h-6zM288 342h6v6h-6zM258 348h6v6h-6zM324 348h12v6h-12zM150 354h6v6h-6zM246 354h12v6h-12zM294 354h6v6h-6zM318 354h6v6h-6zM156 360h6v6h-6zM240 360h12v6h-12zM294 360h18v6h-18zM318 360h6v6h-6zM132 366h12v6h-12zM162 366h12v6h-12zM222 366h6v6h-6zM234 366h12v6h-12zM300 366h6v6h-6zM108 372h6v6h-6zM132 372h6v6h-6zM150 372h18v6h-18zM282 372h6v6h-6zM126 378h6v6h-6zM156 378h6v6h-6zM198 378h6v6h-6zM282 378h6v6h-6zM102 384h6v6h-6zM198 384h6v6h-6zM282 384h12v6h-12zM348 384h6v6h-6zM384 384h6v6h-6zM234 390h6v6h-6zM276 390h18v6h-18zM342 390h18v6h-18zM378 390h12v6h-12zM102 396h6v6h-6zM168 396h12v6h-12zM228 396h12v6h-12zM246 396h6v6h-6zM270 396h18v6h-18zM342 396h6v6h-6zM366 396h18v6h-18zM102 402h18v6h-18zM216 402h12v6h-12zM234 402h6v6h-6zM258 402h24v6h-24zM372 402h6v6h-6zM108 408h12v6h-12zM180 408h6v6h-6zM222 408h18v6h-18zM270 408h6v6h-6zM324 408h12v6h-12zM174 414h6v6h-6zM216 414h18v6h-18zM318 414h12v6h-12zM90 420h18v6h-18zM222 420h6v6h-6zM312 420h12v6h-12zM300 426h6v6h-6zM150 432h6v6h-6zM300 432h6v6h-6zM150 438h12v6h-12zM192 438h6v6h-6zM204 438h6v6h-6zM150 444h18v6h-18zM150 450h6v6h-6zM162 450h12v6h-12zM180 450h6v6h-6zM324 450h6v6h-6zM312 456h12v6h-12zM330 456h6v6h-6zM306 462h6v6h-6zM318 462h24v6h-24zM294 468h18v6h-18zM318 468h6v6h-6zM300 474h6v6h-6z"/><path fill="#2f5045" d="M402 90h12v6h-12zM342 96h12v6h-12zM360 96h6v6h-6zM342 102h12v6h-12zM396 102h6v6h-6zM342 108h6v6h-6zM396 114h6v6h-6zM324 126h6v6h-6zM318 156h6v6h-6zM312 168h6v6h-6zM300 174h6v6h-6zM312 180h6v6h-6zM324 180h6v6h-6zM324 186h6v6h-6zM348 186h18v6h-18zM288 204h12v6h-12zM282 210h12v6h-12zM270 222h6v6h-6zM390 234h6v6h-6zM282 240h6v6h-6zM258 246h6v6h-6zM294 246h6v6h-6zM336 246h6v6h-6zM372 246h18v6h-18zM282 252h18v6h-18zM336 252h6v6h-6zM348 252h6v6h-6zM360 252h12v6h-12zM234 258h6v6h-6zM336 258h6v6h-6zM348 258h18v6h-18zM228 264h6v6h-6zM276 264h6v6h-6zM408 264h6v6h-6zM222 270h12v6h-12zM270 270h6v6h-6zM330 270h6v6h-6zM402 270h12v6h-12zM210 276h6v6h-6zM264 276h6v6h-6zM300 276h6v6h-6zM204 282h6v6h-6zM252 282h6v6h-6zM306 282h12v6h-12zM324 282h6v6h-6zM204 288h6v6h-6zM210 294h6v6h-6zM216 300h6v6h-6zM222 306h12v6h-12zM240 306h6v6h-6zM198 312h12v6h-12zM216 312h24v6h-24zM216 318h18v6h-18zM198 324h6v6h-6zM162 330h6v6h-6zM192 330h6v6h-6zM336 330h6v6h-6zM150 336h6v6h-6zM180 336h6v6h-6zM258 336h6v6h-6zM276 336h12v6h-12zM144 342h6v6h-6zM330 342h12v6h-12zM144 348h6v6h-6zM252 348h6v6h-6zM312 348h12v6h-12zM240 354h6v6h-6zM306 354h12v6h-12zM324 354h6v6h-6zM132 360h6v6h-6zM150 360h6v6h-6zM228 360h12v6h-12zM144 366h18v6h-18zM228 366h6v6h-6zM372 372h6v6h-6zM102 378h6v6h-6zM288 378h6v6h-6zM378 378h12v6h-12zM96 384h6v6h-6zM114 384h6v6h-6zM192 384h6v6h-6zM372 384h12v6h-12zM96 390h6v6h-6zM186 390h12v6h-12zM216 390h18v6h-18zM360 390h18v6h-18zM96 396h6v6h-6zM162 396h6v6h-6zM222 396h6v6h-6zM336 396h6v6h-6zM228 402h6v6h-6zM330 402h12v6h-12zM84 408h6v6h-6zM102 408h6v6h-6zM84 414h12v6h-12zM102 414h12v6h-12zM312 414h6v6h-6zM150 420h18v6h-18zM294 426h6v6h-6zM288 432h12v6h-12zM300 438h6v6h-6zM288 444h6v6h-6zM300 444h12v6h-12zM156 450h6v6h-6zM294 450h6v6h-6zM306 450h12v6h-12zM294 456h18v6h-18zM294 462h12v6h-12zM312 462h6v6h-6z"/><path fill="#53614a" d="M360 90h6v6h-6zM354 96h6v6h-6zM336 108h6v6h-6zM336 114h6v6h-6zM324 120h12v6h-12zM312 126h12v6h-12zM312 150h6v6h-6zM312 156h6v6h-6zM300 168h12v6h-12zM324 174h6v6h-6zM318 180h6v6h-6zM300 192h12v6h-12zM294 198h12v6h-12zM378 222h6v6h-6zM270 228h6v6h-6zM384 228h12v6h-12zM270 234h12v6h-12zM378 234h12v6h-12zM258 240h24v6h-24zM366 240h18v6h-18zM264 246h12v6h-12zM282 246h12v6h-12zM330 246h6v6h-6zM348 246h6v6h-6zM366 246h6v6h-6zM234 252h6v6h-6zM354 252h6v6h-6zM330 258h6v6h-6zM324 264h12v6h-12zM402 264h6v6h-6zM210 270h6v6h-6zM318 270h12v6h-12zM396 270h6v6h-6zM246 276h18v6h-18zM306 276h18v6h-18zM198 282h6v6h-6zM210 300h6v6h-6zM210 306h12v6h-12zM210 312h6v6h-6zM168 318h6v6h-6zM192 324h6v6h-6zM294 324h6v6h-6zM186 330h6v6h-6zM264 330h12v6h-12zM288 330h6v6h-6zM330 330h6v6h-6zM252 336h6v6h-6zM324 336h12v6h-12zM138 342h6v6h-6zM252 342h6v6h-6zM318 342h12v6h-12zM240 348h12v6h-12zM300 348h12v6h-12zM144 354h6v6h-6zM234 354h6v6h-6zM300 354h6v6h-6zM138 360h12v6h-12zM222 360h6v6h-6zM192 378h6v6h-6zM366 378h12v6h-12zM354 384h18v6h-18zM90 390h6v6h-6zM174 390h12v6h-12zM330 390h12v6h-12zM324 396h12v6h-12zM96 402h6v6h-6zM180 402h6v6h-6zM318 402h12v6h-12zM96 408h6v6h-6zM174 408h6v6h-6zM312 408h12v6h-12zM96 414h6v6h-6zM162 414h12v6h-12zM288 438h12v6h-12zM294 444h6v6h-6zM300 450h6v6h-6z"/><path fill="#86794f" d="M324 114h12v6h-12zM318 120h6v6h-6zM306 150h6v6h-6zM300 162h18v6h-18zM288 198h6v6h-6zM282 204h6v6h-6zM372 222h6v6h-6zM264 228h6v6h-6zM366 228h18v6h-18zM264 234h6v6h-6zM366 234h12v6h-12zM354 240h12v6h-12zM276 246h6v6h-6zM324 246h6v6h-6zM354 246h12v6h-12zM324 252h12v6h-12zM408 252h6v6h-6zM228 258h6v6h-6zM318 258h12v6h-12zM402 258h12v6h-12zM210 264h18v6h-18zM270 264h6v6h-6zM306 264h18v6h-18zM216 270h6v6h-6zM258 270h12v6h-12zM300 270h18v6h-18zM198 288h6v6h-6zM198 294h12v6h-12zM204 300h6v6h-6zM198 306h12v6h-12zM288 318h6v6h-6zM162 324h6v6h-6zM276 324h6v6h-6zM288 324h6v6h-6zM144 330h18v6h-18zM282 330h6v6h-6zM324 330h6v6h-6zM246 336h6v6h-6zM306 336h18v6h-18zM246 342h6v6h-6zM300 342h18v6h-18zM138 348h6v6h-6zM228 348h12v6h-12zM228 354h6v6h-6zM126 372h6v6h-6zM366 372h6v6h-6zM114 378h12v6h-12zM186 378h6v6h-6zM354 378h12v6h-12zM180 384h12v6h-12zM162 390h12v6h-12zM324 390h6v6h-6zM90 396h6v6h-6zM318 396h6v6h-6zM84 402h12v6h-12zM174 402h6v6h-6zM312 402h6v6h-6zM90 408h6v6h-6zM168 408h6v6h-6zM156 414h6v6h-6z"/><path fill="#b9985c" d="M306 156h6v6h-6zM294 192h6v6h-6zM360 234h6v6h-6zM318 252h6v6h-6zM222 258h6v6h-6zM312 258h6v6h-6zM252 270h6v6h-6zM198 300h6v6h-6zM162 318h6v6h-6zM144 324h6v6h-6zM156 324h6v6h-6zM180 324h12v6h-12zM282 324h6v6h-6zM180 330h6v6h-6zM276 330h6v6h-6zM234 342h12v6h-12zM132 354h12v6h-12zM102 372h6v6h-6zM120 372h6v6h-6zM96 378h6v6h-6zM168 384h12v6h-12zM156 408h6v6h-6z"/><path fill="#dcbf84" d="M150 318h12v6h-12zM150 324h6v6h-6zM180 378h6v6h-6zM162 402h12v6h-12zM162 408h6v6h-6z"/></g></svg>
